<mxfile host="65bd71144e">
    <diagram id="rHCsh4QCmsIp2Y-mL9lZ" name="Page-1">
        <mxGraphModel dx="1451" dy="629" grid="1" gridSize="10" guides="1" tooltips="1" connect="1" arrows="1" fold="1" page="1" pageScale="1" pageWidth="850" pageHeight="1100" math="0" shadow="0">
            <root>
                <mxCell id="0"/>
                <mxCell id="1" parent="0"/>
                <mxCell id="3" value="&lt;i&gt;&lt;b&gt;Oakdale Window Tint&lt;/b&gt;&lt;/i&gt;" style="rounded=1;whiteSpace=wrap;html=1;align=left;" vertex="1" parent="1">
                    <mxGeometry x="20" y="20" width="810" height="50" as="geometry"/>
                </mxCell>
                <mxCell id="4" value="&lt;ul&gt;&lt;li style=&quot;line-height: 2.1&quot;&gt;Form Question #1&lt;hr&gt;&lt;/li&gt;&lt;li style=&quot;line-height: 2.1&quot;&gt;Form Question #2&lt;hr&gt;&lt;/li&gt;&lt;li style=&quot;line-height: 2.1&quot;&gt;Form Question #3&lt;hr&gt;&lt;/li&gt;&lt;li style=&quot;line-height: 2.1&quot;&gt;Form Question #4&lt;hr&gt;&lt;/li&gt;&lt;li&gt;&lt;span style=&quot;line-height: 2.1&quot;&gt;Form Question #5&lt;/span&gt;&lt;hr&gt;&lt;/li&gt;&lt;/ul&gt;" style="rounded=1;whiteSpace=wrap;html=1;fontSize=13;" vertex="1" parent="1">
                    <mxGeometry x="205" y="160" width="440" height="380" as="geometry"/>
                </mxCell>
                <mxCell id="5" value="Residential" style="text;html=1;strokeColor=none;fillColor=none;align=center;verticalAlign=middle;whiteSpace=wrap;rounded=0;fontSize=13;" vertex="1" parent="1">
                    <mxGeometry x="260" y="180" width="60" height="30" as="geometry"/>
                </mxCell>
                <mxCell id="6" value="Automotive" style="text;html=1;strokeColor=none;fillColor=none;align=center;verticalAlign=middle;whiteSpace=wrap;rounded=0;fontSize=13;" vertex="1" parent="1">
                    <mxGeometry x="395" y="180" width="60" height="30" as="geometry"/>
                </mxCell>
                <mxCell id="7" value="Commercial" style="text;html=1;strokeColor=none;fillColor=none;align=center;verticalAlign=middle;whiteSpace=wrap;rounded=0;fontSize=13;" vertex="1" parent="1">
                    <mxGeometry x="520" y="180" width="60" height="30" as="geometry"/>
                </mxCell>
            </root>
        </mxGraphModel>
    </diagram>
</mxfile>